<svg width="42" height="40" viewBox="0 0 42 40" fill="none" xmlns="http://www.w3.org/2000/svg">
<rect width="42" height="40" rx="6" fill="white"/>
<path d="M9.39693 25V14.8182H15.7805V16.1406H10.9331V19.2429H15.4474V20.5604H10.9331V23.6776H15.8401V25H9.39693ZM19.1997 20.4659V25H17.7132V17.3636H19.14V18.6065H19.2345C19.4101 18.2022 19.6852 17.8774 20.0597 17.6321C20.4376 17.3868 20.9132 17.2642 21.4866 17.2642C22.007 17.2642 22.4627 17.3736 22.8538 17.5923C23.2449 17.8078 23.5481 18.1293 23.7636 18.5568C23.979 18.9844 24.0867 19.513 24.0867 20.1428V25H22.6002V20.3217C22.6002 19.7682 22.4561 19.3357 22.1677 19.0241C21.8794 18.7093 21.4833 18.5518 20.9795 18.5518C20.6348 18.5518 20.3282 18.6264 20.0597 18.7756C19.7946 18.9247 19.5841 19.1435 19.4284 19.4318C19.2759 19.7169 19.1997 20.0616 19.1997 20.4659ZM29.282 28.0227C28.6755 28.0227 28.1535 27.9432 27.716 27.7841C27.2818 27.625 26.9272 27.4145 26.6521 27.1527C26.377 26.8909 26.1715 26.6042 26.0356 26.2926L27.3133 25.7656C27.4028 25.9115 27.5221 26.0656 27.6713 26.228C27.8237 26.3937 28.0292 26.5346 28.2877 26.6506C28.5496 26.7666 28.886 26.8246 29.297 26.8246C29.8604 26.8246 30.3261 26.687 30.694 26.4119C31.0619 26.1402 31.2458 25.706 31.2458 25.1094V23.608H31.1514C31.0619 23.7704 30.9326 23.951 30.7636 24.1499C30.5979 24.3487 30.3692 24.5211 30.0775 24.6669C29.7858 24.8127 29.4063 24.8857 28.939 24.8857C28.3358 24.8857 27.7922 24.7448 27.3083 24.4631C26.8277 24.178 26.4466 23.7588 26.1649 23.2053C25.8865 22.6484 25.7472 21.964 25.7472 21.152C25.7472 20.34 25.8848 19.6439 26.1599 19.0639C26.4383 18.4839 26.8195 18.0398 27.3034 17.7315C27.7873 17.42 28.3358 17.2642 28.949 17.2642C29.4229 17.2642 29.8057 17.3438 30.0974 17.5028C30.3891 17.6586 30.6161 17.8409 30.7785 18.0497C30.9442 18.2585 31.0718 18.4425 31.1613 18.6016H31.2707V17.3636H32.7274V25.169C32.7274 25.8253 32.5749 26.3639 32.27 26.7848C31.9651 27.2057 31.5524 27.5173 31.032 27.7195C30.515 27.9216 29.9317 28.0227 29.282 28.0227ZM29.2671 23.6527C29.6947 23.6527 30.056 23.5533 30.3509 23.3544C30.6492 23.1522 30.8746 22.8639 31.0271 22.4893C31.1829 22.1115 31.2607 21.6591 31.2607 21.1321C31.2607 20.6184 31.1845 20.166 31.032 19.7749C30.8796 19.3838 30.6559 19.0788 30.3609 18.8601C30.0659 18.638 29.7013 18.527 29.2671 18.527C28.8197 18.527 28.4468 18.643 28.1485 18.875C27.8502 19.1037 27.6249 19.4152 27.4724 19.8097C27.3232 20.2041 27.2487 20.6449 27.2487 21.1321C27.2487 21.6326 27.3249 22.0717 27.4774 22.4496C27.6298 22.8274 27.8552 23.1224 28.1535 23.3345C28.4551 23.5466 28.8263 23.6527 29.2671 23.6527Z" fill="#B0B4BE"/>
</svg>
