<svg width="52" height="20" viewBox="0 0 52 20" fill="none" xmlns="http://www.w3.org/2000/svg">
<g clip-path="url(#clip0_299_4219)">
<path d="M24.6392 9.7707V15.6333H22.7793V1.15521H27.712C28.3008 1.14291 28.8862 1.24734 29.4344 1.46246C29.9826 1.67759 30.4828 1.99915 30.9061 2.4086C31.3337 2.79319 31.674 3.26485 31.9041 3.79188C32.1343 4.3189 32.2489 4.88909 32.2404 5.46411C32.2526 6.04221 32.1397 6.61611 31.9094 7.1465C31.6791 7.67688 31.3369 8.1512 30.9061 8.53695C30.0436 9.35945 28.9789 9.77032 27.712 9.76954H24.6392V9.7707ZM24.6392 2.93768V7.99169H27.7582C28.1002 8.00183 28.4404 7.94048 28.7573 7.81158C29.0742 7.68268 29.3607 7.48907 29.5984 7.24312C29.835 7.01316 30.023 6.73811 30.1514 6.43423C30.2798 6.13035 30.3459 5.80382 30.3459 5.47393C30.3459 5.14404 30.2798 4.8175 30.1514 4.51362C30.023 4.20975 29.835 3.9347 29.5984 3.70474C29.3637 3.45361 29.0782 3.25524 28.7609 3.1228C28.4437 2.99036 28.1019 2.92687 27.7582 2.93653H24.6392V2.93768Z" fill="white"/>
<path d="M36.526 5.40404C37.9006 5.40404 38.9858 5.77139 39.7813 6.5061C40.5769 7.24081 40.9742 8.24814 40.9735 9.52811V15.6333H39.1945V14.2587H39.1136C38.3435 15.3908 37.3192 15.9568 36.0408 15.9568C34.9495 15.9568 34.0365 15.6333 33.3018 14.9864C32.9492 14.6895 32.6673 14.3177 32.4767 13.898C32.286 13.4783 32.1914 13.0214 32.1997 12.5605C32.1997 11.5355 32.5871 10.7203 33.3619 10.1149C34.1366 9.50962 35.1709 9.20619 36.4647 9.20465C37.5691 9.20465 38.4786 9.40681 39.1933 9.81113V9.38602C39.1954 9.07182 39.1276 8.76109 38.9947 8.47637C38.8618 8.19165 38.6673 7.94006 38.4251 7.73985C37.9333 7.29612 37.2923 7.054 36.6299 7.06175C35.591 7.06175 34.7689 7.49996 34.1636 8.37637L32.5255 7.34478C33.4265 6.05095 34.76 5.40404 36.526 5.40404ZM34.1197 12.6009C34.1184 12.8376 34.1738 13.0712 34.2811 13.2822C34.3884 13.4932 34.5445 13.6755 34.7365 13.8139C35.1479 14.1375 35.6584 14.3089 36.1817 14.2991C36.9665 14.2978 37.7189 13.9854 38.2738 13.4304C38.8899 12.8505 39.1979 12.1701 39.1979 11.3891C38.618 10.9271 37.8094 10.696 36.772 10.696C36.0165 10.696 35.3865 10.8782 34.8821 11.2424C34.3727 11.6121 34.1197 12.0615 34.1197 12.6009Z" fill="white"/>
<path d="M51.1857 5.72749L44.9753 20H43.0554L45.36 15.0061L41.2764 5.72749H43.298L46.2495 12.8435H46.2899L49.1606 5.72749H51.1857Z" fill="white"/>
<path d="M17.1228 8.5069C17.1235 7.94011 17.0756 7.37429 16.9796 6.81569H9.13574V10.0191H13.6283C13.5364 10.5307 13.3418 11.0184 13.0563 11.4528C12.7708 11.8872 12.4003 12.2593 11.9671 12.5466V14.626H14.6484C16.2183 13.1785 17.1228 11.0379 17.1228 8.5069Z" fill="#4285F4"/>
<path d="M9.13551 16.6349C11.3801 16.6349 13.27 15.8979 14.6481 14.6272L11.9669 12.5478C11.2206 13.0538 10.2595 13.3426 9.13551 13.3426C6.96604 13.3426 5.12465 11.8801 4.46619 9.90932H1.7041V12.0522C2.39638 13.4298 3.4579 14.5878 4.77017 15.397C6.08244 16.2063 7.59379 16.6348 9.13551 16.6349Z" fill="#34A853"/>
<path d="M4.46708 9.90932C4.11898 8.87662 4.11898 7.75829 4.46708 6.72559V4.58269H1.705C1.12263 5.74153 0.819336 7.02051 0.819336 8.31745C0.819336 9.6144 1.12263 10.8934 1.705 12.0522L4.46708 9.90932Z" fill="#FBBC04"/>
<path d="M9.13551 3.29232C10.3217 3.27294 11.4678 3.7211 12.3262 4.53994L14.7001 2.166C13.1948 0.75212 11.2006 -0.0241231 9.13551 -3.61394e-06C7.59379 6.66514e-05 6.08244 0.428639 4.77017 1.23787C3.4579 2.04709 2.39638 3.20513 1.7041 4.58268L4.46619 6.72558C5.12465 4.75481 6.96604 3.29232 9.13551 3.29232Z" fill="#EA4335"/>
</g>
<defs>
<clipPath id="clip0_299_4219">
<rect width="50.3633" height="20" fill="white" transform="translate(0.818359)"/>
</clipPath>
</defs>
</svg>
