<svg width="41" height="40" viewBox="0 0 41 40" fill="none" xmlns="http://www.w3.org/2000/svg">
<rect width="41" height="40" rx="6" fill="white"/>
<path d="M9.94593 25.1392V23.7869H10.5574C10.8126 23.7869 11.0231 23.7438 11.1888 23.6577C11.3579 23.5715 11.4954 23.4555 11.6015 23.3097C11.7108 23.1605 11.802 22.9981 11.8749 22.8224L12.0191 22.4595L8.43954 14.8182H10.0702L12.74 20.7045L15.1164 14.8182H16.7272L13.2073 23.2351C13.0582 23.5732 12.8858 23.8864 12.6903 24.1747C12.498 24.4631 12.2412 24.6967 11.9197 24.8757C11.5982 25.0514 11.1723 25.1392 10.642 25.1392H9.94593ZM17.5003 25V17.3636H18.9868V20.5653H19.7027L22.2233 17.3636H24.0628L21.1047 21.0774L24.0976 25H22.2531L19.9513 21.9474H18.9868V25H17.5003ZM25.2522 27.8636V17.3636H26.7039V18.6016H26.8282C26.9144 18.4425 27.0387 18.2585 27.2011 18.0497C27.3635 17.8409 27.5889 17.6586 27.8772 17.5028C28.1656 17.3438 28.5467 17.2642 29.0207 17.2642C29.6372 17.2642 30.1874 17.42 30.6713 17.7315C31.1552 18.0431 31.5347 18.4922 31.8097 19.0788C32.0882 19.6655 32.2274 20.3714 32.2274 21.1967C32.2274 22.022 32.0898 22.7296 31.8147 23.3196C31.5396 23.9062 31.1618 24.3587 30.6812 24.6768C30.2006 24.9917 29.6521 25.1491 29.0356 25.1491C28.5716 25.1491 28.1921 25.0713 27.8971 24.9155C27.6054 24.7597 27.3767 24.5774 27.211 24.3686C27.0453 24.1598 26.9177 23.9742 26.8282 23.8118H26.7387V27.8636H25.2522ZM26.7089 21.1818C26.7089 21.7187 26.7868 22.1894 26.9426 22.5938C27.0983 22.9981 27.3237 23.3146 27.6187 23.5433C27.9137 23.7687 28.2749 23.8814 28.7025 23.8814C29.1466 23.8814 29.5178 23.7637 29.8161 23.5284C30.1144 23.2898 30.3398 22.9666 30.4923 22.5589C30.6481 22.1513 30.7259 21.6922 30.7259 21.1818C30.7259 20.678 30.6497 20.2256 30.4972 19.8246C30.3481 19.4235 30.1227 19.107 29.8211 18.875C29.5228 18.643 29.1499 18.527 28.7025 18.527C28.2716 18.527 27.907 18.638 27.6088 18.8601C27.3138 19.0821 27.0901 19.392 26.9376 19.7898C26.7851 20.1875 26.7089 20.6515 26.7089 21.1818Z" fill="#363A43"/>
</svg>
